<?xml version="1.0" encoding="UTF-8"?>
<svg xmlns="http://www.w3.org/2000/svg" xmlns:xlink="http://www.w3.org/1999/xlink" width="75pt" height="74.999997pt" viewBox="0 0 75 74.999997" version="1.2">
<defs>
<clipPath id="clip1">
  <path d="M 14.199219 50 L 24 50 L 24 61 L 14.199219 61 Z M 14.199219 50 "/>
</clipPath>
<clipPath id="clip2">
  <path d="M 50 16 L 60.605469 16 L 60.605469 26 L 50 26 Z M 50 16 "/>
</clipPath>
</defs>
<g id="surface1">
<rect x="0" y="0" width="75" height="74.999997" style="fill:rgb(100%,100%,100%);fill-opacity:1;stroke:none;"/>
<rect x="0" y="0" width="75" height="74.999997" style="fill:rgb(100%,100%,100%);fill-opacity:1;stroke:none;"/>
<rect x="0" y="0" width="75" height="74.999997" style="fill:rgb(0%,29.019165%,67.83905%);fill-opacity:1;stroke:none;"/>
<path style=" stroke:none;fill-rule:nonzero;fill:rgb(20.388794%,28.62854%,36.859131%);fill-opacity:1;" d="M 45.875 29.589844 L 38.355469 28.6875 L 37.996094 31.699219 C 38.144531 31.625 38.316406 31.59375 38.496094 31.617188 C 38.992188 31.675781 39.347656 32.128906 39.289062 32.625 C 39.226562 33.125 38.777344 33.480469 38.28125 33.421875 C 38.101562 33.398438 37.941406 33.328125 37.8125 33.222656 L 37.453125 36.234375 L 40.445312 36.59375 C 40.347656 36.722656 40.277344 36.878906 40.257812 37.050781 C 40.199219 37.550781 40.554688 38 41.050781 38.0625 C 41.546875 38.121094 41.996094 37.765625 42.058594 37.265625 C 42.078125 37.09375 42.046875 36.925781 41.980469 36.777344 L 44.972656 37.140625 L 45.875 29.589844 "/>
<path style=" stroke:none;fill-rule:nonzero;fill:rgb(10.198975%,73.728943%,61.178589%);fill-opacity:1;" d="M 36.644531 32.546875 C 36.609375 32.046875 36.175781 31.667969 35.675781 31.703125 C 35.5 31.71875 35.335938 31.78125 35.203125 31.882812 L 34.988281 28.855469 L 27.433594 29.398438 L 27.976562 36.980469 L 30.957031 36.765625 C 30.878906 36.644531 30.828125 36.5 30.816406 36.339844 C 30.78125 35.839844 31.15625 35.40625 31.65625 35.371094 C 32.15625 35.332031 32.585938 35.710938 32.625 36.210938 C 32.636719 36.367188 32.605469 36.519531 32.546875 36.652344 L 35.527344 36.4375 L 35.3125 33.410156 C 35.457031 33.492188 35.628906 33.53125 35.808594 33.519531 C 36.304688 33.484375 36.679688 33.046875 36.644531 32.546875 "/>
<path style=" stroke:none;fill-rule:nonzero;fill:rgb(95.289612%,61.178589%,7.058716%);fill-opacity:1;" d="M 44.929688 38.375 L 41.9375 38.746094 C 42.039062 38.871094 42.105469 39.027344 42.128906 39.199219 C 42.1875 39.699219 41.835938 40.152344 41.339844 40.214844 C 40.84375 40.273438 40.390625 39.921875 40.328125 39.421875 C 40.308594 39.25 40.335938 39.082031 40.40625 38.933594 L 37.414062 39.304688 L 37.777344 42.277344 C 37.644531 42.226562 37.5 42.207031 37.347656 42.222656 C 36.851562 42.285156 36.5 42.738281 36.558594 43.238281 C 36.621094 43.738281 37.074219 44.089844 37.570312 44.03125 C 37.71875 44.011719 37.855469 43.957031 37.972656 43.875 L 38.335938 46.847656 L 45.851562 45.921875 L 44.929688 38.375 "/>
<path style=" stroke:none;fill-rule:nonzero;fill:rgb(90.589905%,29.798889%,23.529053%);fill-opacity:1;" d="M 35.042969 42.121094 C 35.195312 42.136719 35.332031 42.1875 35.449219 42.265625 L 35.769531 39.289062 L 32.792969 38.96875 C 32.878906 38.847656 32.933594 38.707031 32.949219 38.550781 C 33.003906 38.050781 32.644531 37.601562 32.144531 37.550781 C 31.648438 37.496094 31.203125 37.859375 31.148438 38.355469 C 31.132812 38.511719 31.15625 38.664062 31.210938 38.800781 L 28.238281 38.480469 L 27.433594 46.039062 L 34.960938 46.847656 L 35.28125 43.871094 C 35.148438 43.921875 35.003906 43.945312 34.851562 43.929688 C 34.355469 43.875 33.996094 43.425781 34.046875 42.925781 C 34.101562 42.429688 34.546875 42.066406 35.042969 42.121094 "/>
<path style=" stroke:none;fill-rule:nonzero;fill:rgb(98.039246%,82.749939%,56.469727%);fill-opacity:1;" d="M 49.988281 43.957031 L 49.992188 45.1875 L 49.566406 46.449219 C 49.566406 46.449219 50.125 45.605469 50.351562 45.496094 C 50.351562 45.496094 50.386719 45.03125 50.703125 44.789062 C 50.703125 44.789062 50.480469 44.085938 50.761719 43.847656 L 51.078125 43.710938 L 51.386719 44.699219 L 51.03125 45.773438 L 50.238281 46.929688 C 50.238281 46.929688 50.386719 46.757812 50.855469 46.707031 C 50.855469 46.707031 51.046875 46.222656 51.308594 46.050781 C 51.308594 46.050781 51.171875 45.394531 51.496094 45.203125 L 51.792969 45.097656 L 51.984375 46.175781 L 51.453125 47.144531 L 50.546875 47.882812 L 49.902344 48.859375 L 49.671875 50.050781 L 50.335938 51.121094 L 49.382812 51.800781 L 47.964844 52.9375 C 47.964844 52.9375 47.238281 51.722656 46.84375 51.566406 L 46.582031 51.488281 C 46.582031 51.488281 45.160156 50.5 45.136719 50.453125 C 45.136719 50.453125 44.160156 48.800781 44 48.386719 C 43.839844 47.976562 43.453125 47.347656 43.445312 47.308594 C 43.441406 47.269531 43.234375 46.261719 43.234375 46.261719 C 43.234375 46.261719 44.207031 46.074219 44.332031 46.878906 L 44.886719 47.679688 C 44.886719 47.679688 45.960938 48.496094 46.441406 48.148438 C 46.925781 47.804688 47.203125 47.417969 47.203125 47.417969 C 47.203125 47.417969 47.445312 46.515625 47.585938 46.015625 C 47.585938 46.015625 47.277344 45.796875 47.191406 45.28125 C 47.191406 45.28125 46.558594 44.84375 46.496094 44.511719 C 46.496094 44.511719 45.734375 44.59375 45.632812 43.976562 L 45.625 43.839844 L 46.394531 43.660156 L 47.65625 44.242188 L 48.621094 45.664062 C 48.621094 45.664062 48.925781 44.960938 49.203125 44.914062 C 49.203125 44.914062 49.085938 44.117188 49.164062 43.984375 C 49.164062 43.984375 48.691406 43.035156 49.144531 42.875 L 49.425781 42.839844 L 49.988281 43.957031 "/>
<path style=" stroke:none;fill-rule:nonzero;fill:rgb(90.19928%,90.19928%,90.19928%);fill-opacity:1;" d="M 47.558594 52.574219 C 47.398438 52.695312 47.355469 52.914062 47.464844 53.0625 L 47.796875 53.507812 C 47.90625 53.652344 48.125 53.667969 48.285156 53.546875 L 49.640625 52.511719 L 48.914062 51.539062 L 47.558594 52.574219 "/>
<path style=" stroke:none;fill-rule:nonzero;fill:rgb(100%,100%,100%);fill-opacity:1;" d="M 50.332031 50.460938 L 48.910156 51.542969 L 49.636719 52.515625 L 51.054688 51.4375 C 51.21875 51.3125 51.257812 51.101562 51.148438 50.953125 L 50.816406 50.507812 C 50.707031 50.363281 50.492188 50.339844 50.332031 50.460938 "/>
<path style=" stroke:none;fill-rule:nonzero;fill:rgb(16.079712%,50.19989%,72.549438%);fill-opacity:1;" d="M 47.808594 53.386719 C 47.648438 53.507812 47.609375 53.726562 47.71875 53.875 L 54.160156 62.972656 L 56.105469 61.707031 L 49.394531 52.179688 L 47.808594 53.386719 "/>
<path style=" stroke:none;fill-rule:nonzero;fill:rgb(20.388794%,59.609985%,85.879517%);fill-opacity:1;" d="M 50.976562 50.972656 L 49.386719 52.183594 L 56.105469 61.707031 L 58.042969 60.445312 L 51.464844 51.019531 C 51.355469 50.875 51.136719 50.851562 50.976562 50.972656 "/>
<path style=" stroke:none;fill-rule:nonzero;fill:rgb(8.628845%,9.799194%,28.62854%);fill-opacity:1;" d="M 50.683594 50.683594 C 50.746094 50.765625 50.722656 50.890625 50.632812 50.960938 C 50.539062 51.03125 50.414062 51.019531 50.351562 50.9375 C 50.289062 50.855469 50.3125 50.730469 50.40625 50.660156 C 50.496094 50.589844 50.621094 50.597656 50.683594 50.683594 "/>
<path style=" stroke:none;fill-rule:nonzero;fill:rgb(98.039246%,82.749939%,56.469727%);fill-opacity:1;" d="M 23.316406 43.578125 L 23.230469 44.808594 L 23.574219 46.09375 C 23.574219 46.09375 23.070312 45.214844 22.851562 45.089844 C 22.851562 45.089844 22.851562 44.625 22.546875 44.359375 C 22.546875 44.359375 22.816406 43.675781 22.554688 43.417969 L 22.242188 43.261719 L 21.871094 44.226562 L 22.15625 45.324219 L 22.875 46.53125 C 22.875 46.53125 22.734375 46.347656 22.273438 46.265625 C 22.273438 46.265625 22.113281 45.769531 21.863281 45.582031 C 21.863281 45.582031 22.042969 44.933594 21.726562 44.722656 L 21.441406 44.597656 L 21.179688 45.664062 L 21.644531 46.660156 L 22.503906 47.457031 L 23.082031 48.476562 L 23.230469 49.679688 L 22.5 50.703125 L 23.40625 51.445312 L 24.746094 52.675781 C 24.746094 52.675781 25.550781 51.507812 25.957031 51.378906 L 26.222656 51.316406 C 26.222656 51.316406 27.703125 50.425781 27.730469 50.382812 C 27.730469 50.382812 28.816406 48.796875 29.003906 48.398438 C 29.1875 47.996094 29.617188 47.394531 29.625 47.355469 C 29.632812 47.316406 29.902344 46.328125 29.902344 46.328125 C 29.902344 46.328125 28.945312 46.074219 28.769531 46.871094 L 28.160156 47.628906 C 28.160156 47.628906 27.035156 48.371094 26.578125 47.996094 C 26.121094 47.617188 25.871094 47.214844 25.871094 47.214844 C 25.871094 47.214844 25.683594 46.300781 25.578125 45.789062 C 25.578125 45.789062 25.902344 45.59375 26.023438 45.085938 C 26.023438 45.085938 26.679688 44.6875 26.765625 44.367188 C 26.765625 44.367188 27.519531 44.496094 27.660156 43.886719 L 27.679688 43.75 L 26.921875 43.519531 L 25.625 44.019531 L 24.570312 45.375 C 24.570312 45.375 24.3125 44.652344 24.039062 44.585938 C 24.039062 44.585938 24.207031 43.796875 24.136719 43.660156 C 24.136719 43.660156 24.667969 42.742188 24.230469 42.558594 L 23.953125 42.503906 L 23.316406 43.578125 "/>
<path style=" stroke:none;fill-rule:nonzero;fill:rgb(90.19928%,90.19928%,90.19928%);fill-opacity:1;" d="M 25.175781 52.335938 C 25.328125 52.46875 25.359375 52.691406 25.238281 52.832031 L 24.878906 53.253906 C 24.757812 53.390625 24.539062 53.394531 24.386719 53.261719 L 23.101562 52.140625 L 23.890625 51.214844 L 25.175781 52.335938 "/>
<path style=" stroke:none;fill-rule:nonzero;fill:rgb(100%,100%,100%);fill-opacity:1;" d="M 22.550781 50.046875 L 23.894531 51.222656 L 23.105469 52.144531 L 21.761719 50.972656 C 21.609375 50.839844 21.582031 50.625 21.703125 50.484375 L 22.0625 50.0625 C 22.179688 49.921875 22.394531 49.914062 22.550781 50.046875 "/>
<path style=" stroke:none;fill-rule:nonzero;fill:rgb(55.688477%,26.669312%,67.83905%);fill-opacity:1;" d="M 24.871094 53.128906 C 25.023438 53.261719 25.046875 53.484375 24.929688 53.625 L 17.90625 62.277344 L 16.050781 60.886719 L 23.371094 51.824219 L 24.871094 53.128906 "/>
<g clip-path="url(#clip1)" clip-rule="nonzero">
<path style=" stroke:none;fill-rule:nonzero;fill:rgb(60.778809%,34.899902%,71.369934%);fill-opacity:1;" d="M 21.871094 50.515625 L 23.378906 51.828125 L 16.050781 60.886719 L 14.199219 59.5 L 21.378906 50.53125 C 21.496094 50.390625 21.71875 50.382812 21.871094 50.515625 "/>
</g>
<path style=" stroke:none;fill-rule:nonzero;fill:rgb(8.628845%,9.799194%,28.62854%);fill-opacity:1;" d="M 22.179688 50.246094 C 22.113281 50.324219 22.128906 50.449219 22.214844 50.527344 C 22.304688 50.601562 22.429688 50.601562 22.496094 50.519531 C 22.566406 50.441406 22.550781 50.316406 22.460938 50.238281 C 22.375 50.160156 22.25 50.164062 22.179688 50.246094 "/>
<path style=" stroke:none;fill-rule:nonzero;fill:rgb(98.039246%,82.749939%,56.469727%);fill-opacity:1;" d="M 23.199219 31.199219 L 23.242188 29.96875 L 23.71875 28.730469 C 23.71875 28.730469 23.125 29.546875 22.894531 29.648438 C 22.894531 29.648438 22.84375 30.113281 22.515625 30.34375 C 22.515625 30.34375 22.707031 31.050781 22.417969 31.28125 L 22.09375 31.402344 L 21.828125 30.402344 L 22.226562 29.34375 L 23.070312 28.21875 C 23.070312 28.21875 22.914062 28.386719 22.445312 28.417969 C 22.445312 28.417969 22.234375 28.894531 21.964844 29.054688 C 21.964844 29.054688 22.074219 29.71875 21.738281 29.894531 L 21.4375 29.988281 L 21.292969 28.898438 L 21.863281 27.957031 L 22.800781 27.257812 L 23.484375 26.304688 L 23.761719 25.125 L 23.144531 24.03125 L 24.125 23.386719 L 25.585938 22.3125 C 25.585938 22.3125 26.261719 23.558594 26.652344 23.730469 L 26.910156 23.820312 C 26.910156 23.820312 28.289062 24.863281 28.3125 24.914062 C 28.3125 24.914062 29.21875 26.605469 29.363281 27.023438 C 29.507812 27.441406 29.867188 28.085938 29.871094 28.125 C 29.875 28.164062 30.039062 29.179688 30.039062 29.179688 C 30.039062 29.179688 29.058594 29.324219 28.96875 28.515625 L 28.445312 27.695312 C 28.445312 27.695312 27.40625 26.835938 26.910156 27.160156 C 26.414062 27.488281 26.121094 27.859375 26.121094 27.859375 C 26.121094 27.859375 25.839844 28.75 25.679688 29.246094 C 25.679688 29.246094 25.980469 29.476562 26.046875 29.996094 C 26.046875 29.996094 26.65625 30.460938 26.710938 30.789062 C 26.710938 30.789062 27.472656 30.742188 27.546875 31.363281 L 27.550781 31.5 L 26.777344 31.648438 L 25.539062 31.011719 L 24.632812 29.550781 C 24.632812 29.550781 24.300781 30.242188 24.019531 30.28125 C 24.019531 30.28125 24.105469 31.082031 24.019531 31.210938 C 24.019531 31.210938 24.453125 32.179688 23.992188 32.316406 L 23.710938 32.339844 L 23.199219 31.199219 "/>
<path style=" stroke:none;fill-rule:nonzero;fill:rgb(90.19928%,90.19928%,90.19928%);fill-opacity:1;" d="M 25.976562 22.695312 C 26.144531 22.578125 26.199219 22.359375 26.09375 22.210938 L 25.78125 21.75 C 25.675781 21.601562 25.457031 21.574219 25.292969 21.691406 L 23.894531 22.667969 L 24.582031 23.667969 L 25.976562 22.695312 "/>
<path style=" stroke:none;fill-rule:nonzero;fill:rgb(100%,100%,100%);fill-opacity:1;" d="M 23.121094 24.6875 L 24.585938 23.664062 L 23.902344 22.664062 L 22.4375 23.683594 C 22.273438 23.800781 22.222656 24.011719 22.328125 24.160156 L 22.640625 24.621094 C 22.742188 24.773438 22.957031 24.804688 23.121094 24.6875 "/>
<path style=" stroke:none;fill-rule:nonzero;fill:rgb(82.749939%,32.939148%,0%);fill-opacity:1;" d="M 25.761719 21.871094 C 25.929688 21.757812 25.976562 21.539062 25.871094 21.386719 L 19.8125 12.027344 L 17.816406 13.214844 L 24.128906 23.011719 L 25.761719 21.871094 "/>
<path style=" stroke:none;fill-rule:nonzero;fill:rgb(90.19928%,49.409485%,13.328552%);fill-opacity:1;" d="M 22.5 24.152344 L 24.136719 23.007812 L 17.816406 13.214844 L 15.832031 14.394531 L 22.011719 24.082031 C 22.113281 24.234375 22.332031 24.265625 22.5 24.152344 "/>
<path style=" stroke:none;fill-rule:nonzero;fill:rgb(8.628845%,9.799194%,28.62854%);fill-opacity:1;" d="M 22.777344 24.453125 C 22.71875 24.367188 22.746094 24.242188 22.84375 24.175781 C 22.9375 24.109375 23.0625 24.125 23.121094 24.210938 C 23.179688 24.296875 23.152344 24.421875 23.054688 24.488281 C 22.960938 24.554688 22.835938 24.539062 22.777344 24.453125 "/>
<path style=" stroke:none;fill-rule:nonzero;fill:rgb(98.039246%,82.749939%,56.469727%);fill-opacity:1;" d="M 42.519531 24.902344 L 43.726562 24.707031 L 45.03125 24.941406 C 45.03125 24.941406 44.117188 24.515625 43.976562 24.304688 C 43.976562 24.304688 43.515625 24.34375 43.226562 24.0625 C 43.226562 24.0625 42.570312 24.390625 42.292969 24.152344 L 42.109375 23.855469 L 43.035156 23.398438 L 44.148438 23.589844 L 45.40625 24.203125 C 45.40625 24.203125 45.210938 24.078125 45.089844 23.625 C 45.089844 23.625 44.585938 23.507812 44.378906 23.273438 C 44.378906 23.273438 43.75 23.507812 43.515625 23.214844 L 43.363281 22.933594 L 44.398438 22.582031 L 45.429688 22.960938 L 46.296875 23.753906 L 47.355469 24.242188 L 48.5625 24.289062 L 49.515625 23.46875 L 50.332031 24.308594 L 51.664062 25.542969 C 51.664062 25.542969 50.578125 26.449219 50.484375 26.867188 L 50.445312 27.140625 C 50.445312 27.140625 49.691406 28.699219 49.648438 28.730469 C 49.648438 28.730469 48.171875 29.949219 47.789062 30.171875 C 47.40625 30.394531 46.847656 30.871094 46.808594 30.882812 C 46.769531 30.894531 45.8125 31.253906 45.8125 31.253906 C 45.8125 31.253906 45.480469 30.316406 46.25 30.070312 L 46.953125 29.398438 C 46.953125 29.398438 47.59375 28.207031 47.179688 27.78125 C 46.765625 27.355469 46.34375 27.140625 46.34375 27.140625 C 46.34375 27.140625 45.421875 27.035156 44.90625 26.972656 C 44.90625 26.972656 44.738281 27.3125 44.242188 27.476562 C 44.242188 27.476562 43.90625 28.167969 43.59375 28.285156 C 43.59375 28.285156 43.789062 29.023438 43.195312 29.21875 L 43.0625 29.25 L 42.769531 28.511719 L 43.152344 27.171875 L 44.40625 26 C 44.40625 26 43.667969 25.800781 43.578125 25.535156 C 43.578125 25.535156 42.808594 25.773438 42.667969 25.714844 C 42.667969 25.714844 41.804688 26.324219 41.582031 25.902344 L 41.503906 25.628906 L 42.519531 24.902344 "/>
<path style=" stroke:none;fill-rule:nonzero;fill:rgb(90.19928%,90.19928%,90.19928%);fill-opacity:1;" d="M 51.367188 26.003906 C 51.511719 26.144531 51.734375 26.15625 51.863281 26.023438 L 52.25 25.625 C 52.378906 25.496094 52.359375 25.277344 52.214844 25.136719 L 50.992188 23.945312 L 50.144531 24.8125 L 51.367188 26.003906 "/>
<path style=" stroke:none;fill-rule:nonzero;fill:rgb(100%,100%,100%);fill-opacity:1;" d="M 48.871094 23.574219 L 50.148438 24.820312 L 50.996094 23.949219 L 49.71875 22.707031 C 49.570312 22.566406 49.355469 22.558594 49.230469 22.6875 L 48.839844 23.085938 C 48.714844 23.214844 48.722656 23.433594 48.871094 23.574219 "/>
<g clip-path="url(#clip2)" clip-rule="nonzero">
<path style=" stroke:none;fill-rule:nonzero;fill:rgb(15.289307%,68.238831%,37.649536%);fill-opacity:1;" d="M 52.128906 25.632812 C 52.273438 25.773438 52.496094 25.777344 52.625 25.648438 L 60.605469 17.875 L 59.0625 16.136719 L 50.699219 24.242188 L 52.128906 25.632812 "/>
</g>
<path style=" stroke:none;fill-rule:nonzero;fill:rgb(18.03894%,79.998779%,44.309998%);fill-opacity:1;" d="M 49.273438 22.855469 L 50.707031 24.25 L 59.0625 16.136719 L 57.527344 14.40625 L 49.246094 22.363281 C 49.117188 22.492188 49.128906 22.714844 49.273438 22.855469 "/>
<path style=" stroke:none;fill-rule:nonzero;fill:rgb(8.628845%,9.799194%,28.62854%);fill-opacity:1;" d="M 49.03125 23.1875 C 49.105469 23.113281 49.230469 23.117188 49.316406 23.199219 C 49.398438 23.28125 49.40625 23.40625 49.332031 23.480469 C 49.261719 23.554688 49.132812 23.550781 49.050781 23.46875 C 48.96875 23.390625 48.957031 23.261719 49.03125 23.1875 "/>
</g>
</svg>
